<?xml version="1.0" encoding="UTF-8" standalone="no"?>
<svg
   xmlns:dc="http://purl.org/dc/elements/1.1/"
   xmlns:cc="http://creativecommons.org/ns#"
   xmlns:rdf="http://www.w3.org/1999/02/22-rdf-syntax-ns#"
   xmlns:svg="http://www.w3.org/2000/svg"
   xmlns="http://www.w3.org/2000/svg"
   version="1.1"
   id="svg2"
   viewBox="0 0 750.00001 245"
   height="245"
   width="750">
  <defs
     id="defs4" />
  <metadata
     id="metadata7">
    <rdf:RDF>
      <cc:Work
         rdf:about="">
        <dc:format>image/svg+xml</dc:format>
        <dc:type
           rdf:resource="http://purl.org/dc/dcmitype/StillImage" />
        <dc:title></dc:title>
      </cc:Work>
    </rdf:RDF>
  </metadata>
  <g
     style="display:inline"
     id="layer3">
    <rect
       y="13.571428"
       x="7.1428571"
       height="75.714287"
       width="130"
       id="rect3505"
       style="fill:#ff7ba9;fill-opacity:0.31658295" />
    <rect
       y="12.857142"
       x="226.42857"
       height="42.142857"
       width="66.428574"
       id="rect4307"
       style="fill:#ff7ba9;fill-opacity:0.31658295" />
  </g>
  <g
     style="display:inline"
     id="layer2">
    <text
       id="text3457"
       y="217.85715"
       x="7.8571429"
       style="font-style:normal;font-variant:normal;font-weight:normal;font-stretch:normal;font-size:26.875px;line-height:125%;font-family:'DejaVu Sans';-inkscape-font-specification:'DejaVu Sans';letter-spacing:0px;word-spacing:0px;fill:#000000;fill-opacity:1;stroke:none;stroke-width:1px;stroke-linecap:butt;stroke-linejoin:miter;stroke-opacity:1"
       xml:space="preserve"><tspan
         y="217.85715"
         x="7.8571429"
         id="tspan3459" /></text>
    <text
       id="text3461"
       y="229.28572"
       x="11.428572"
       style="font-style:normal;font-variant:normal;font-weight:normal;font-stretch:normal;font-size:27.5px;line-height:125%;font-family:'DejaVu Sans';-inkscape-font-specification:'DejaVu Sans';letter-spacing:0px;word-spacing:0px;fill:#000000;fill-opacity:1;stroke:none;stroke-width:1px;stroke-linecap:butt;stroke-linejoin:miter;stroke-opacity:1"
       xml:space="preserve"><tspan
         style="font-style:normal;font-variant:normal;font-weight:normal;font-stretch:normal;font-size:26.875px;font-family:'DejaVu Sans';-inkscape-font-specification:'DejaVu Sans'"
         y="229.28572"
         x="11.428572"
         id="tspan3463">Pyruvate</tspan></text>
    <text
       id="text3465"
       y="227.85716"
       x="277.14285"
       style="font-style:normal;font-variant:normal;font-weight:normal;font-stretch:normal;font-size:26.875px;line-height:125%;font-family:'DejaVu Sans';-inkscape-font-specification:'DejaVu Sans';letter-spacing:0px;word-spacing:0px;fill:#000000;fill-opacity:1;stroke:none;stroke-width:1px;stroke-linecap:butt;stroke-linejoin:miter;stroke-opacity:1"
       xml:space="preserve"><tspan
         y="227.85716"
         x="277.14285"
         id="tspan3467">Acetaldehyde</tspan></text>
    <text
       id="text3469"
       y="230"
       x="637.14282"
       style="font-style:normal;font-variant:normal;font-weight:normal;font-stretch:normal;font-size:26.875px;line-height:125%;font-family:'DejaVu Sans';-inkscape-font-specification:'DejaVu Sans';letter-spacing:0px;word-spacing:0px;fill:#000000;fill-opacity:1;stroke:none;stroke-width:1px;stroke-linecap:butt;stroke-linejoin:miter;stroke-opacity:1"
       xml:space="preserve"><tspan
         y="230"
         x="637.14282"
         id="tspan3471">Ethanol</tspan></text>
    <text
       id="text3473"
       y="148.57143"
       x="216.75711"
       style="font-style:normal;font-variant:normal;font-weight:normal;font-stretch:normal;font-size:25px;line-height:125%;font-family:aRIAL;-inkscape-font-specification:aRIAL;text-align:center;letter-spacing:0px;word-spacing:0px;text-anchor:middle;fill:#577ba9;fill-opacity:1;stroke:none;stroke-width:1px;stroke-linecap:butt;stroke-linejoin:miter;stroke-opacity:1"
       xml:space="preserve"><tspan
         style="font-size:22.5px"
         y="148.57143"
         x="216.75711"
         id="tspan3475">pyruvate</tspan><tspan
         style="font-size:22.5px"
         id="tspan3477"
         y="176.69643"
         x="216.75711">decarboxylase</tspan></text>
    <text
       id="text3473-0"
       y="149.2988"
       x="539.3736"
       style="font-style:normal;font-variant:normal;font-weight:normal;font-stretch:normal;font-size:25px;line-height:125%;font-family:aRIAL;-inkscape-font-specification:aRIAL;text-align:center;letter-spacing:0px;word-spacing:0px;text-anchor:middle;fill:#577ba9;fill-opacity:1;stroke:none;stroke-width:1px;stroke-linecap:butt;stroke-linejoin:miter;stroke-opacity:1"
       xml:space="preserve"><tspan
         style="font-size:22.5px"
         id="tspan3477-5"
         y="149.2988"
         x="539.3736">alcohol</tspan><tspan
         id="tspan3502"
         style="font-size:22.5px"
         y="177.4238"
         x="539.3736">dehydrogenase</tspan></text>
    <text
       id="text4309"
       y="75.621468"
       x="167.61203"
       style="font-style:normal;font-weight:normal;font-size:40px;line-height:125%;font-family:Sans;letter-spacing:0px;word-spacing:0px;fill:#000000;fill-opacity:1;stroke:none;stroke-width:1px;stroke-linecap:butt;stroke-linejoin:miter;stroke-opacity:1"
       xml:space="preserve"><tspan
         style="font-style:normal;font-variant:normal;font-weight:normal;font-stretch:normal;font-size:22.5px;font-family:'DejaVu Sans';-inkscape-font-specification:'DejaVu Sans'"
         y="75.621468"
         x="167.61203"
         id="tspan4311">TPP,</tspan><tspan
         style="font-style:normal;font-variant:normal;font-weight:normal;font-stretch:normal;font-size:22.5px;font-family:'DejaVu Sans';-inkscape-font-specification:'DejaVu Sans'"
         id="tspan4313"
         y="103.74647"
         x="167.61203">Mg²⁺</tspan></text>
    <text
       id="text4315"
       y="39.93903"
       x="439.41635"
       style="font-style:normal;font-variant:normal;font-weight:normal;font-stretch:normal;font-size:25px;line-height:125%;font-family:'DejaVu Sans';-inkscape-font-specification:'DejaVu Sans';letter-spacing:0px;word-spacing:0px;fill:#000000;fill-opacity:1;stroke:none;stroke-width:1px;stroke-linecap:butt;stroke-linejoin:miter;stroke-opacity:1"
       xml:space="preserve"><tspan
         y="39.93903"
         x="439.41635"
         id="tspan4317">NADH + H⁺</tspan></text>
    <text
       id="text4319"
       y="77.314682"
       x="564.67529"
       style="font-style:normal;font-variant:normal;font-weight:normal;font-stretch:normal;font-size:22.5px;line-height:125%;font-family:'DejaVu Sans';-inkscape-font-specification:'DejaVu Sans';letter-spacing:0px;word-spacing:0px;fill:#000000;fill-opacity:1;stroke:none;stroke-width:1px;stroke-linecap:butt;stroke-linejoin:miter;stroke-opacity:1"
       xml:space="preserve"><tspan
         style="font-size:25px"
         y="77.314682"
         x="564.67529"
         id="tspan4321">NAD⁺</tspan></text>
    <text
       id="text4323"
       y="73.274063"
       x="667.71088"
       style="font-style:normal;font-weight:normal;font-size:22.5px;line-height:125%;font-family:Sans;letter-spacing:0px;word-spacing:0px;fill:#000000;fill-opacity:1;stroke:none;stroke-width:1px;stroke-linecap:butt;stroke-linejoin:miter;stroke-opacity:1"
       xml:space="preserve"><tspan
         id="tspan4333"
         y="73.274063"
         x="667.71088" /></text>
    <text
       id="text4319-9"
       y="80.36631"
       x="665.53253"
       style="font-style:normal;font-variant:normal;font-weight:normal;font-stretch:normal;font-size:22.5px;line-height:125%;font-family:'DejaVu Sans';-inkscape-font-specification:'DejaVu Sans';letter-spacing:0px;word-spacing:0px;display:inline;fill:#000000;fill-opacity:1;stroke:none;stroke-width:1px;stroke-linecap:butt;stroke-linejoin:miter;stroke-opacity:1"
       xml:space="preserve"><tspan
         style="font-size:25px"
         y="80.36631"
         x="665.53253"
         id="tspan4321-0">OH</tspan></text>
    <text
       id="text4319-2"
       y="129.86377"
       x="664.5224"
       style="font-style:normal;font-variant:normal;font-weight:normal;font-stretch:normal;font-size:22.5px;line-height:125%;font-family:'DejaVu Sans';-inkscape-font-specification:'DejaVu Sans';letter-spacing:0px;word-spacing:0px;display:inline;fill:#000000;fill-opacity:1;stroke:none;stroke-width:1px;stroke-linecap:butt;stroke-linejoin:miter;stroke-opacity:1"
       xml:space="preserve"><tspan
         style="font-size:25px"
         y="129.86377"
         x="664.5224"
         id="tspan4321-01">CH₂</tspan></text>
    <text
       id="text4319-96"
       y="179.36127"
       x="664.5224"
       style="font-style:normal;font-variant:normal;font-weight:normal;font-stretch:normal;font-size:22.5px;line-height:125%;font-family:'DejaVu Sans';-inkscape-font-specification:'DejaVu Sans';letter-spacing:0px;word-spacing:0px;display:inline;fill:#000000;fill-opacity:1;stroke:none;stroke-width:1px;stroke-linecap:butt;stroke-linejoin:miter;stroke-opacity:1"
       xml:space="preserve"><tspan
         style="font-size:25px"
         y="179.36127"
         x="664.5224"
         id="tspan4321-2">CH₃</tspan></text>
    <text
       id="text4377"
       y="165.19795"
       x="857.61951"
       style="font-style:normal;font-weight:normal;font-size:22.5px;line-height:125%;font-family:Sans;letter-spacing:0px;word-spacing:0px;fill:#000000;fill-opacity:1;stroke:none;stroke-width:1px;stroke-linecap:butt;stroke-linejoin:miter;stroke-opacity:1"
       xml:space="preserve"><tspan
         y="165.19795"
         x="857.61951"
         id="tspan4379" /></text>
    <text
       id="text4319-96-7"
       y="179.34906"
       x="357.60971"
       style="font-style:normal;font-variant:normal;font-weight:normal;font-stretch:normal;font-size:22.5px;line-height:125%;font-family:'DejaVu Sans';-inkscape-font-specification:'DejaVu Sans';letter-spacing:0px;word-spacing:0px;display:inline;fill:#000000;fill-opacity:1;stroke:none;stroke-width:1px;stroke-linecap:butt;stroke-linejoin:miter;stroke-opacity:1"
       xml:space="preserve"><tspan
         style="font-size:25px"
         y="179.34906"
         x="357.60971"
         id="tspan4321-2-3">CH₃</tspan></text>
    <text
       id="text4319-96-1"
       y="128.84143"
       x="355.46689"
       style="font-style:normal;font-variant:normal;font-weight:normal;font-stretch:normal;font-size:22.5px;line-height:125%;font-family:'DejaVu Sans';-inkscape-font-specification:'DejaVu Sans';letter-spacing:0px;word-spacing:0px;display:inline;fill:#000000;fill-opacity:1;stroke:none;stroke-width:1px;stroke-linecap:butt;stroke-linejoin:miter;stroke-opacity:1"
       xml:space="preserve"><tspan
         style="font-size:25px"
         y="128.84143"
         x="355.46689"
         id="tspan4321-2-1">C</tspan></text>
    <text
       id="text4319-96-9"
       y="91.588341"
       x="395.57712"
       style="font-style:normal;font-variant:normal;font-weight:normal;font-stretch:normal;font-size:22.5px;line-height:125%;font-family:'DejaVu Sans';-inkscape-font-specification:'DejaVu Sans';letter-spacing:0px;word-spacing:0px;display:inline;fill:#000000;fill-opacity:1;stroke:none;stroke-width:1px;stroke-linecap:butt;stroke-linejoin:miter;stroke-opacity:1"
       xml:space="preserve"><tspan
         style="font-size:25px"
         y="91.588341"
         x="395.57712"
         id="tspan4321-2-0">H</tspan></text>
    <text
       id="text4319-96-1-5"
       y="91.46579"
       x="318.53696"
       style="font-style:normal;font-variant:normal;font-weight:normal;font-stretch:normal;font-size:22.5px;line-height:125%;font-family:'DejaVu Sans';-inkscape-font-specification:'DejaVu Sans';letter-spacing:0px;word-spacing:0px;display:inline;fill:#000000;fill-opacity:1;stroke:none;stroke-width:1px;stroke-linecap:butt;stroke-linejoin:miter;stroke-opacity:1"
       xml:space="preserve"><tspan
         style="font-size:25px"
         y="91.46579"
         x="318.53696"
         id="tspan4321-2-1-6">O</tspan></text>
    <text
       id="text4319-96-7-7"
       y="179.34906"
       x="54.563965"
       style="font-style:normal;font-variant:normal;font-weight:normal;font-stretch:normal;font-size:22.5px;line-height:125%;font-family:'DejaVu Sans';-inkscape-font-specification:'DejaVu Sans';letter-spacing:0px;word-spacing:0px;display:inline;fill:#000000;fill-opacity:1;stroke:none;stroke-width:1px;stroke-linecap:butt;stroke-linejoin:miter;stroke-opacity:1"
       xml:space="preserve"><tspan
         style="font-size:25px"
         y="179.34906"
         x="54.563965"
         id="tspan4321-2-3-7">CH₃</tspan></text>
    <text
       id="text4319-96-7-4"
       y="129.85158"
       x="54.441422"
       style="font-style:normal;font-variant:normal;font-weight:normal;font-stretch:normal;font-size:22.5px;line-height:125%;font-family:'DejaVu Sans';-inkscape-font-specification:'DejaVu Sans';letter-spacing:0px;word-spacing:0px;display:inline;fill:#000000;fill-opacity:1;stroke:none;stroke-width:1px;stroke-linecap:butt;stroke-linejoin:miter;stroke-opacity:1"
       xml:space="preserve"><tspan
         style="font-size:25px"
         y="129.85158"
         x="54.441422"
         id="tspan4321-2-3-0">C</tspan></text>
    <text
       id="text4319-96-7-6"
       y="130.56586"
       x="101.03098"
       style="font-style:normal;font-variant:normal;font-weight:normal;font-stretch:normal;font-size:22.5px;line-height:125%;font-family:'DejaVu Sans';-inkscape-font-specification:'DejaVu Sans';letter-spacing:0px;word-spacing:0px;display:inline;fill:#000000;fill-opacity:1;stroke:none;stroke-width:1px;stroke-linecap:butt;stroke-linejoin:miter;stroke-opacity:1"
       xml:space="preserve"><tspan
         style="font-size:25px"
         y="130.56586"
         x="101.03098"
         id="tspan4321-2-3-4">O</tspan></text>
    <text
       id="text4319-96-7-6-5"
       y="41.968304"
       x="17.435246"
       style="font-style:normal;font-variant:normal;font-weight:normal;font-stretch:normal;font-size:22.5px;line-height:125%;font-family:'DejaVu Sans';-inkscape-font-specification:'DejaVu Sans';letter-spacing:0px;word-spacing:0px;display:inline;fill:#000000;fill-opacity:1;stroke:none;stroke-width:1px;stroke-linecap:butt;stroke-linejoin:miter;stroke-opacity:1"
       xml:space="preserve"><tspan
         style="font-size:25px"
         y="41.968304"
         x="17.435246"
         id="tspan4321-2-3-4-8">O</tspan></text>
    <text
       transform="matrix(0.99939423,0.03480201,-0.03480201,0.99939423,0,0)"
       id="text4319-96-7-6-2"
       y="38.433475"
       x="93.23407"
       style="font-style:normal;font-variant:normal;font-weight:normal;font-stretch:normal;font-size:22.5px;line-height:125%;font-family:'DejaVu Sans';-inkscape-font-specification:'DejaVu Sans';letter-spacing:0px;word-spacing:0px;display:inline;fill:#000000;fill-opacity:1;stroke:none;stroke-width:1px;stroke-linecap:butt;stroke-linejoin:miter;stroke-opacity:1"
       xml:space="preserve"><tspan
         style="font-size:25px"
         y="38.433475"
         x="93.23407"
         id="tspan4321-2-3-4-6">O⁻</tspan></text>
    <text
       id="text4319-96-7-6-0"
       y="80.649971"
       x="54.392471"
       style="font-style:normal;font-variant:normal;font-weight:normal;font-stretch:normal;font-size:22.5px;line-height:125%;font-family:'DejaVu Sans';-inkscape-font-specification:'DejaVu Sans';letter-spacing:0px;word-spacing:0px;display:inline;fill:#000000;fill-opacity:1;stroke:none;stroke-width:1px;stroke-linecap:butt;stroke-linejoin:miter;stroke-opacity:1"
       xml:space="preserve"><tspan
         style="font-size:25px"
         y="80.649971"
         x="54.392471"
         id="tspan4321-2-3-4-66">C</tspan></text>
    <text
       id="text4319-96-7-6-4"
       y="40.958153"
       x="236.10457"
       style="font-style:normal;font-variant:normal;font-weight:normal;font-stretch:normal;font-size:22.5px;line-height:125%;font-family:'DejaVu Sans';-inkscape-font-specification:'DejaVu Sans';letter-spacing:0px;word-spacing:0px;display:inline;fill:#000000;fill-opacity:1;stroke:none;stroke-width:1px;stroke-linecap:butt;stroke-linejoin:miter;stroke-opacity:1"
       xml:space="preserve"><tspan
         style="font-size:25px"
         y="40.958153"
         x="236.10457"
         id="tspan4321-2-3-4-62">CO₂</tspan></text>
    <path
       id="path4574"
       d="m 413.42717,796.55311 c 0,-7.93273 0.4957,-13.15165 1.24917,-13.15165 0.75347,0 1.24917,5.21892 1.24917,13.15165 0,7.93274 -0.4957,13.15165 -1.24917,13.15165 -0.75347,0 -1.24917,-5.21891 -1.24917,-13.15165 z m 301.31879,-0.9394 c 0.19579,-7.06118 0.82004,-12.69768 1.38723,-12.52553 0.56717,0.17213 1.1293,5.94962 1.24917,12.83883 0.16495,9.48105 -0.17226,12.52578 -1.38723,12.52554 -1.22617,-2.5e-4 -1.52112,-3.03158 -1.24917,-12.83884 z m 308.27664,0.38706 c 0,-6.94988 0.5519,-12.7935 1.2492,-13.22558 0.8026,-0.4974 1.2491,3.95337 1.2491,12.45146 0,7.98203 -0.4952,13.22558 -1.2491,13.22558 -0.749,0 -1.2492,-4.98552 -1.2492,-12.45146 z M 516.79849,779.84246 c -1.88804,-1.14257 -3.24662,-2.64106 -3.01909,-3.32996 0.26439,-0.80048 18.74812,-1.37062 51.21357,-1.57972 44.68743,-0.28781 50.79989,-0.0989 50.79989,1.5702 0,1.66168 -5.7806,1.8918 -46.53162,1.85231 -25.59239,-0.0248 -47.02204,-0.0268 -47.62144,-0.005 -0.59942,0.0223 -0.39006,0.88602 0.46524,1.91936 2.14014,2.58567 -0.70632,2.35628 -5.30655,-0.42765 z m 332.04958,-0.46258 c -1.32743,-0.75258 -3.71891,-1.42379 -5.31441,-1.49158 -1.5955,-0.0678 -3.039,-0.6869 -3.20776,-1.3758 -0.19974,-0.81531 17.24398,-1.3668 49.97227,-1.57987 44.9031,-0.29235 50.27913,-0.11799 50.27913,1.63068 0,1.74598 -4.79898,1.91707 -44.31494,1.57987 -33.5143,-0.28598 -44.39852,-0.0147 -44.65786,1.11343 -0.2546,1.10744 -0.9645,1.13918 -2.75643,0.12325 z M 423.42054,774.6337 c 0,-0.7555 5.20487,-1.25254 13.11629,-1.25254 7.91142,0 13.11629,0.49704 13.11629,1.25254 0,0.75549 -5.20487,1.25253 -13.11629,1.25253 -7.91142,0 -13.11629,-0.49704 -13.11629,-1.25253 z m 0.62458,-5.01016 c 0.42592,-0.69101 6.02606,-1.25253 12.49171,-1.25253 6.46565,0 12.06579,0.56152 12.49171,1.25253 0.49617,0.80499 -3.96731,1.25254 -12.49171,1.25254 -8.5244,0 -12.98788,-0.44755 -12.49171,-1.25254 z m 90.56489,-2.50507 c 0,-0.79625 9.79855,-1.25254 26.8973,-1.25254 21.49064,0 27.83084,-0.39102 31.54157,-1.94525 9.78454,-4.09826 15.93626,-13.25358 19.47863,-28.98919 2.59607,-11.53206 2.69832,-18.43993 0.25906,-17.50137 -1.40199,0.53944 -1.337,-0.0826 0.31229,-2.98942 1.14548,-2.01884 2.36374,-3.6672 2.70726,-3.66303 0.34353,0.004 1.95783,2.11427 3.58734,4.6891 1.6295,2.57483 2.21973,3.97696 1.31162,3.11584 -2.79625,-2.65155 -3.64905,-1.77797 -3.66825,3.75762 -0.0458,13.2209 -6.93924,31.8259 -14.14106,38.16623 -2.51793,2.21672 -4.57804,4.32944 -4.57804,4.69493 0,0.3655 7.06446,0.66454 15.69882,0.66454 15.13034,0 15.6701,-0.0907 14.90587,-2.50508 -0.43612,-1.37779 -0.42025,-2.50507 0.0352,-2.50507 1.89597,0 8.05714,5.29348 7.40071,6.35847 -1.00625,1.63261 -101.74835,1.53778 -101.74835,-0.0958 z m 324.78445,0 c 0,-0.77622 6.74536,-1.25254 17.73775,-1.25254 l 17.73774,0 -7.26093,-6.48902 c -10.9447,-9.78114 -12.10177,-13.38093 -12.91107,-40.16803 -0.43114,-14.27048 -0.22941,-22.23255 0.56329,-22.23255 0.74049,0 1.52964,8.98269 1.97091,22.43449 0.82566,25.1693 1.72312,28.32693 10.47333,36.84889 15.68586,15.27672 40.56816,11.36857 50.37829,-7.91268 2.72436,-5.35461 3.22935,-8.12748 1.25763,-6.9056 -2.1846,1.3538 -1.34988,-0.77091 1.75768,-4.47398 l 3.00684,-3.58307 1.76779,2.77599 c 3.93841,6.18454 4.12594,6.68437 1.7969,4.78944 -2.61172,-2.12492 -2.41004,-2.32605 -6.14484,6.12805 -2.73781,6.19734 -11.22529,16.28299 -13.70278,16.28299 -0.53532,0 -0.9733,0.56365 -0.9733,1.25254 0,0.76242 5.62127,1.25254 14.36546,1.25254 7.90101,0 14.36547,-0.45091 14.36547,-1.00203 0,-0.55112 -0.70266,-1.76109 -1.56147,-2.68883 -1.26888,-1.37073 -1.21036,-1.49932 0.3123,-0.68626 2.92687,1.56288 6.24585,4.65757 6.24585,5.82379 0,0.58212 -22.76614,1.05841 -50.59142,1.05841 -32.89483,0 -50.59142,-0.43813 -50.59142,-1.25254 z M 694.74908,753.0814 c -8.46889,-8.61018 -10.71384,-11.99536 -5.51972,-8.32324 3.52782,2.49409 15.68158,16.08704 14.99727,16.77319 -0.32295,0.32381 -4.58784,-3.47866 -9.47755,-8.44995 z m 30.51938,6.80276 c -0.37061,-0.6013 3.44524,-5.1959 8.47969,-10.21023 10.81398,-10.77077 13.91334,-10.06714 3.50191,0.79502 -8.48815,8.85562 -11.07404,10.88763 -11.9816,9.41521 z m -311.00851,-1.11595 c -0.45803,-0.45926 -0.83278,-6.3775 -0.83278,-13.15165 0,-9.49292 0.38586,-12.31662 1.68308,-12.31662 1.32965,0 1.59127,2.67473 1.24587,12.73744 -0.44657,13.01023 -0.64084,14.19009 -2.09617,12.73083 z m 283.43393,-9.19357 c -4.72988,-4.82683 -8.2128,-9.16408 -7.73984,-9.63832 0.88703,-0.88943 18.27747,15.70549 18.27747,17.44138 0,2.27094 -2.42725,0.47357 -10.53763,-7.80306 z m 325.32872,-4.37559 c 0,-7.93274 0.4957,-13.15165 1.2492,-13.15165 0.7534,0 1.2491,5.21891 1.2491,13.15165 0,7.93274 -0.4957,13.15165 -1.2491,13.15165 -0.7535,0 -1.2492,-5.21891 -1.2492,-13.15165 z M 393.09091,703.6307 c -7.42329,-7.40684 -9.68373,-10.41198 -7.83182,-10.41198 0.87642,0 18.17471,17.14722 18.17471,18.01599 0,2.02717 -2.62306,0.0987 -10.34289,-7.60401 z m 30.32963,6.1528 c 0,-2.16706 18.46041,-19.28029 19.31044,-17.90121 0.51691,0.83863 -2.72097,5.0227 -7.85421,10.1494 -7.98142,7.97126 -11.45623,10.32248 -11.45623,7.75181 z m -26.74297,-9.18916 c -4.74649,-4.75664 -8.23879,-9.04069 -7.76066,-9.52012 0.47814,-0.47942 4.84658,3.11629 9.70766,7.99047 4.86108,4.87418 8.35337,9.15823 7.76065,9.52012 -0.59271,0.36188 -4.96116,-3.23383 -9.70765,-7.99047 z"
       style="display:inline;fill:#000000"
       transform="translate(-350.71429,-649.86218)" />
  </g>
</svg>
