<?xml version="1.0" encoding="UTF-8" standalone="no"?>
<!-- Created with Inkscape (http://www.inkscape.org/) -->
<svg
   xmlns:svg="http://www.w3.org/2000/svg"
   xmlns="http://www.w3.org/2000/svg"
   version="1.0"
   width="520"
   height="258.57001"
   id="svg2">
  <defs
     id="defs4" />
  <g
     transform="translate(-32.017927,-444.74619)"
     id="layer1">
    <path
       d="M 94.479077,691.56621 C 92.916137,690.61327 90.970927,688.43607 90.156397,686.72798 C 88.869117,684.02852 88.842117,683.51693 89.949927,682.81625 C 92.113597,681.44774 93.147527,681.88007 94.286387,684.6295 C 95.578797,687.74966 97.506627,688.95077 101.22222,688.95077 C 106.35378,688.95077 109.79165,683.08776 107.34296,678.51232 C 106.3022,676.56766 101.22927,674.74073 99.118897,675.55055 C 97.916067,676.01212 97.663767,675.72932 97.897327,674.18131 C 98.104777,672.80642 99.194617,671.88722 101.58828,671.06824 C 106.75195,669.30154 107.97786,666.07776 104.72353,662.82343 C 101.48253,659.58243 94.833977,661.57475 93.274087,666.25439 C 93.018017,667.02263 92.234017,667.20118 90.931767,666.78785 C 88.458737,666.00295 89.048317,663.46512 92.538237,659.8729 C 95.999157,656.31052 102.20647,655.74447 106.39822,658.60899 C 111.20634,661.89472 112.09945,667.9665 108.25839,671.25532 C 106.66922,672.61601 106.71272,672.75372 109.58861,675.46603 C 118.7662,684.12161 105.48321,698.27548 94.479077,691.56621 z M 134.05913,678.10896 C 128.57301,676.15236 125.70687,673.27005 122.32348,666.30708 C 120.30555,662.15421 119.99386,660.41655 119.98022,653.24341 C 119.96282,644.0975 121.75471,638.60256 126.32527,633.78588 C 131.52207,628.30925 141.17332,625.82753 149.02028,627.95009 C 153.56908,629.18053 159.04346,634.10366 160.8805,638.61606 L 162.19396,641.84237 L 158.93289,642.74377 C 157.13931,643.23955 155.5723,643.35534 155.45065,643.0011 C 154.56664,640.42688 151.30201,636.39567 148.93024,634.94957 C 142.63012,631.10835 132.98283,634.07784 129.10905,641.05065 C 127.21443,644.46096 126.93177,646.04387 126.93177,653.24341 C 126.93177,660.44294 127.21443,662.02586 129.10905,665.43617 C 132.01738,670.67116 137.39836,673.54056 143.32623,673.01746 C 148.5628,672.55535 151.5691,670.40287 154.36547,665.11346 C 156.46149,661.14877 156.65651,661.01584 159.59094,661.55147 C 161.26744,661.85749 162.76437,662.23081 162.91744,662.38109 C 163.83912,663.28589 158.81408,672.06178 155.99035,674.47878 C 150.41917,679.24751 141.4256,680.73617 134.05913,678.10896 z M 332.28672,678.16176 C 326.74137,676.34886 321.98548,672.09627 319.23153,666.48815 C 317.07745,662.10162 316.7904,660.54416 316.7904,653.24341 C 316.7904,645.93525 317.07635,644.38744 319.24076,639.97979 C 324.48152,629.30742 335.35493,624.82418 347.33195,628.39743 C 356.56076,631.15077 362.24555,639.21874 363.12196,650.80697 C 364.33699,666.87237 355.65923,678.16343 341.43361,679.02675 C 338.21608,679.22202 334.4366,678.8646 332.28672,678.16176 z M 349.21847,670.11562 C 353.43111,666.75754 355.59812,662.32784 356.18285,655.87939 C 357.0793,645.99311 353.39985,638.01082 346.50249,634.87861 C 337.49899,630.78995 327.42502,635.38943 324.60813,644.87492 C 319.96803,660.49981 327.72955,673.88394 340.94482,673.04627 C 344.90043,672.79554 346.62123,672.18601 349.21847,670.11562 z M 42.017927,653.24341 L 42.017927,627.98699 L 45.501567,627.98699 L 48.985217,627.98699 L 48.985217,638.43792 L 48.985217,648.88885 L 62.048887,648.88885 L 75.112547,648.88885 L 75.112547,638.43792 L 75.112547,627.98699 L 78.596197,627.98699 L 82.079837,627.98699 L 82.079837,653.24341 L 82.079837,678.49983 L 78.596197,678.49983 L 75.112547,678.49983 L 75.112547,666.74253 L 75.112547,654.98523 L 62.048887,654.98523 L 48.985217,654.98523 L 48.985217,666.74253 L 48.985217,678.49983 L 45.501567,678.49983 L 42.017927,678.49983 L 42.017927,653.24341 z M 167.38921,636.6215 C 166.85455,635.62248 166.54683,634.67568 166.70539,634.51751 C 166.86395,634.35935 177.18282,628.33821 189.63621,621.13723 L 212.27875,608.04452 L 213.4367,610.25455 C 214.07357,611.47006 214.466,612.55881 214.30877,612.67399 C 212.87972,613.72078 169.32593,638.43792 168.91044,638.43792 C 168.60843,638.43792 167.92388,637.62053 167.38921,636.6215 z M 290.4093,625.68384 C 269.04747,613.35374 268.41991,612.91412 269.61367,611.11623 C 270.29066,610.09662 271.18867,609.32837 271.60925,609.409 C 272.02983,609.48963 282.04077,615.12821 293.85578,621.93916 C 314.67973,633.94346 315.30892,634.38573 314.40013,636.38032 C 313.8845,637.512 313.2316,638.42885 312.94923,638.41777 C 312.66687,638.40669 302.5239,632.67642 290.4093,625.68384 z M 366.82787,636.6215 C 366.29321,635.62248 366.01257,634.64829 366.20422,634.45664 C 366.39587,634.26498 376.69721,628.25085 389.09608,621.09189 C 410.93801,608.48061 411.67789,608.13045 412.87415,609.83835 C 413.91964,611.33098 413.92578,611.77001 412.91427,612.70345 C 411.54763,613.96463 369.15531,638.43792 368.33737,638.43792 C 368.04181,638.43792 367.36254,637.62053 366.82787,636.6215 z M 523.83829,634.08607 C 522.27534,633.13314 520.33013,630.95593 519.51561,629.24785 C 518.22832,626.54838 518.20131,626.0368 519.30913,625.33611 C 521.47281,623.9676 522.50673,624.39993 523.64559,627.14936 C 524.938,630.26952 526.86584,631.47063 530.58142,631.47063 C 535.71299,631.47063 539.15086,625.60762 536.70216,621.03218 C 535.6614,619.08753 530.58848,617.26059 528.4781,618.07042 C 527.27528,618.53198 527.02297,618.24918 527.25653,616.70118 C 527.46399,615.32629 528.55382,614.40709 530.94748,613.58811 C 536.11115,611.8214 537.33706,608.59762 534.08274,605.34329 C 530.84174,602.10229 524.19318,604.09462 522.6333,608.77426 C 522.37722,609.54249 521.59323,609.72104 520.29097,609.30772 C 517.81794,608.52281 518.40752,605.98498 521.89744,602.39276 C 525.35837,598.83039 531.56567,598.26434 535.75742,601.12885 C 540.56554,604.41458 541.45865,610.48636 537.61759,613.77519 C 536.02842,615.13587 536.07192,615.27358 538.94781,617.98589 C 548.1254,626.64147 534.84241,640.79534 523.83829,634.08607 z M 233.343,620.62882 C 227.85688,618.67222 224.99074,615.78991 221.60735,608.82694 C 219.58942,604.67407 219.27774,602.93641 219.26409,595.76327 C 219.24669,586.61736 221.03858,581.12243 225.60915,576.30574 C 230.80594,570.82911 240.45719,568.34739 248.30415,570.46996 C 252.85296,571.7004 258.32733,576.62352 260.16437,581.13592 L 261.47783,584.36224 L 258.21677,585.26364 C 256.42319,585.75941 254.85617,585.87521 254.73452,585.52096 C 253.85051,582.94674 250.58589,578.91553 248.21411,577.46943 C 241.914,573.62821 232.26671,576.5977 228.39292,583.57052 C 226.4983,586.98082 226.21564,588.56374 226.21564,595.76327 C 226.21564,602.96281 226.4983,604.54572 228.39292,607.95603 C 231.30125,613.19102 236.68223,616.06042 242.6101,615.53732 C 247.84667,615.07521 250.85298,612.92273 253.64934,607.63332 C 255.74536,603.66864 255.94038,603.5357 258.87481,604.07134 C 260.55131,604.37735 262.04824,604.75067 262.20132,604.90095 C 263.12299,605.80575 258.09795,614.58164 255.27422,616.99865 C 249.70304,621.76737 240.70947,623.25603 233.343,620.62882 z M 432.78166,620.62882 C 427.29554,618.67222 424.4294,615.78991 421.04601,608.82694 C 419.02807,604.67407 418.71639,602.93641 418.70274,595.76327 C 418.68534,586.61736 420.47724,581.12243 425.0478,576.30574 C 430.2446,570.82911 439.89585,568.34739 447.74281,570.46996 C 452.29161,571.7004 457.76598,576.62352 459.60302,581.13592 L 460.91649,584.36224 L 457.65542,585.26364 C 455.86184,585.75941 454.29483,585.87521 454.17318,585.52096 C 453.28917,582.94674 450.02454,578.91553 447.65276,577.46943 C 441.35265,573.62821 431.70536,576.5977 427.83157,583.57052 C 425.93696,586.98082 425.6543,588.56374 425.6543,595.76327 C 425.6543,602.96281 425.93696,604.54572 427.83157,607.95603 C 430.7399,613.19102 436.12089,616.06042 442.04876,615.53732 C 447.28533,615.07521 450.29163,612.92273 453.088,607.63332 C 455.18402,603.66864 455.37903,603.5357 458.31347,604.07134 C 459.98997,604.37735 461.4869,604.75067 461.63997,604.90095 C 462.56165,605.80575 457.5366,614.58164 454.71287,616.99865 C 449.1417,621.76737 440.14813,623.25603 432.78166,620.62882 z M 470.50622,595.76327 L 470.50622,570.50685 L 473.98987,570.50685 L 477.47351,570.50685 L 477.47351,580.95778 L 477.47351,591.40872 L 490.53718,591.40872 L 503.60085,591.40872 L 503.60085,580.95778 L 503.60085,570.50685 L 507.08449,570.50685 L 510.56814,570.50685 L 510.56814,595.76327 L 510.56814,621.0197 L 507.08449,621.0197 L 503.60085,621.0197 L 503.60085,609.2624 L 503.60085,597.50509 L 490.53718,597.50509 L 477.47351,597.50509 L 477.47351,609.2624 L 477.47351,621.0197 L 473.98987,621.0197 L 470.50622,621.0197 L 470.50622,595.76327 z M 230.13474,539.5895 L 230.13474,513.89762 L 232.31202,513.89762 L 234.4893,513.89762 L 234.4893,539.5895 L 234.4893,565.28138 L 232.31202,565.28138 L 230.13474,565.28138 L 230.13474,539.5895 z M 247.55296,539.5895 L 247.55296,513.89762 L 249.73024,513.89762 L 251.90752,513.89762 L 251.90752,539.5895 L 251.90752,565.28138 L 249.73024,565.28138 L 247.55296,565.28138 L 247.55296,539.5895 z M 233.00284,505.72135 C 227.4575,503.90845 222.70161,499.65585 219.94766,494.04774 C 217.79358,489.6612 217.50653,488.10375 217.50653,480.80299 C 217.50653,473.49484 217.79248,471.94703 219.95689,467.53937 C 225.19765,456.86701 236.07105,452.38376 248.04808,455.95701 C 257.27689,458.71036 262.96167,466.77833 263.83809,478.36655 C 265.05311,494.43196 256.37536,505.72302 242.14974,506.58634 C 238.93221,506.78161 235.15273,506.42419 233.00284,505.72135 z M 249.9346,497.67521 C 254.14723,494.31712 256.31424,489.88742 256.89897,483.43897 C 257.79543,473.55269 254.11598,465.57041 247.21861,462.43819 C 238.21512,458.34954 228.14115,462.94901 225.32425,472.43451 C 220.68416,488.05939 228.44568,501.44353 241.66095,500.60586 C 245.61655,500.35513 247.33735,499.7456 249.9346,497.67521 z"
       id="path2525"
       style="fill:#000000" />
  </g>
</svg>
