<?xml version="1.0" encoding="UTF-8" standalone="no"?>
<!-- Generator: Adobe Illustrator 12.0.1, SVG Export Plug-In . SVG Version: 6.00 Build 51448)  -->
<svg
   xmlns:dc="http://purl.org/dc/elements/1.1/"
   xmlns:cc="http://web.resource.org/cc/"
   xmlns:rdf="http://www.w3.org/1999/02/22-rdf-syntax-ns#"
   xmlns:svg="http://www.w3.org/2000/svg"
   xmlns="http://www.w3.org/2000/svg"
   xmlns:sodipodi="http://sodipodi.sourceforge.net/DTD/sodipodi-0.dtd"
   xmlns:inkscape="http://www.inkscape.org/namespaces/inkscape"
   version="1.1"
   id="Layer_1"
   width="103.723"
   height="147.834"
   viewBox="0 0 103.723 147.834"
   style="overflow:visible;enable-background:new 0 0 103.723 147.834;"
   xml:space="preserve"
   sodipodi:version="0.32"
   inkscape:version="0.45.1"
   sodipodi:docname="Anisol.svg"
   inkscape:output_extension="org.inkscape.output.svg.inkscape"
   sodipodi:docbase="C:\"><metadata
   id="metadata42"><rdf:RDF><cc:Work
       rdf:about=""><dc:format>image/svg+xml</dc:format><dc:type
         rdf:resource="http://purl.org/dc/dcmitype/StillImage" /></cc:Work></rdf:RDF></metadata><defs
   id="defs40" /><sodipodi:namedview
   inkscape:window-height="579"
   inkscape:window-width="801"
   inkscape:pageshadow="2"
   inkscape:pageopacity="0.0"
   guidetolerance="10.0"
   gridtolerance="10.0"
   objecttolerance="10.0"
   borderopacity="1.0"
   bordercolor="#666666"
   pagecolor="#ffffff"
   id="base"
   inkscape:zoom="2.556922"
   inkscape:cx="51.8615"
   inkscape:cy="73.917"
   inkscape:window-x="264"
   inkscape:window-y="264"
   inkscape:current-layer="Layer_1" />
<path
   style="fill:#231f20"
   d="M 4.2081,123.90315 L 2.5931,124.80565 L 2.5931,86.18815 L 4.2081,87.13815 L 4.2081,123.90315 z "
   id="polygon3" />
<path
   style="fill:#231f20"
   d="M 8.2455998,89.940647 L 9.8605999,89.940647 L 9.8605999,121.10065 L 8.2455998,121.10065 L 8.2455998,89.940647 z "
   id="rect5" />
<path
   style="fill:#231f20"
   d="M 36.0806,142.28565 L 36.0806,144.13815 L 2.5931,124.80565 L 4.2081,123.90315 L 36.0806,142.28565 z "
   id="polygon7" />
<path
   style="fill:#231f20"
   d="M 67.9056,123.90315 L 69.52155,124.80565 L 36.0806,144.13815 L 36.0806,142.28565 L 67.9056,123.90315 z "
   id="polygon9" />
<path
   style="fill:#231f20"
   d="M 62.6806,120.38815 L 63.4881,121.81315 L 36.4606,137.39315 L 35.6531,135.96815 L 62.6806,120.38815 z "
   id="polygon11" />
<path
   style="fill:#231f20"
   d="M 67.9056,87.13815 L 69.52155,86.18815 L 69.52155,124.80565 L 67.9056,123.90315 L 67.9056,87.13815 z "
   id="polygon13" />
<path
   style="fill:#231f20"
   d="M 36.0806,68.75565 L 36.0806,67.80565 L 36.8881,67.33065 L 69.52155,86.18815 L 67.9056,87.13815 L 36.0806,68.75565 z "
   id="polygon15" />
<path
   style="fill:#231f20"
   d="M 35.6531,75.02565 L 36.4606,73.64815 L 63.4881,89.22815 L 62.6806,90.60565 L 35.6531,75.02565 z "
   id="polygon17" />
<path
   style="fill:#231f20"
   d="M 4.2081,87.13815 L 2.5931,86.18815 L 35.2731,67.33065 L 36.0806,67.80565 L 36.0806,68.75565 L 4.2081,87.13815 z "
   id="polygon19" />
<g
   id="g21"
   transform="matrix(0.95,0,0,0.95,2.5931,3.69585)">
	<path
   style="fill:#231f20"
   d="M 27.006,28.919 C 27.006,26.066 27.772,23.834 29.304,22.221 C 30.836,20.607 32.814,19.8 35.237,19.8 C 36.824,19.8 38.254,20.179 39.528,20.937 C 40.802,21.696 41.773,22.752 42.442,24.108 C 43.111,25.464 43.444,27.002 43.444,28.72 C 43.444,30.463 43.092,32.022 42.389,33.397 C 41.686,34.772 40.689,35.814 39.399,36.521 C 38.109,37.228 36.718,37.582 35.225,37.582 C 33.607,37.582 32.161,37.191 30.887,36.41 C 29.613,35.629 28.648,34.561 27.991,33.21 C 27.334,31.859 27.006,30.428 27.006,28.919 z M 29.35,28.948 C 29.35,31.018 29.907,32.649 31.021,33.841 C 32.135,35.033 33.533,35.628 35.213,35.628 C 36.925,35.628 38.334,35.026 39.441,33.823 C 40.547,32.62 41.1,30.913 41.1,28.702 C 41.1,27.304 40.864,26.083 40.391,25.04 C 39.918,23.997 39.226,23.188 38.315,22.614 C 37.404,22.04 36.382,21.753 35.249,21.753 C 33.639,21.753 32.253,22.306 31.092,23.411 C 29.931,24.516 29.35,26.362 29.35,28.948 z "
   id="path23" />
</g>
<path
   style="fill:#231f20"
   d="M 35.2731,41.53815 L 36.8881,41.53815 L 36.8881,67.33065 L 36.0806,67.80565 L 35.2731,67.33065 L 35.2731,41.53815 z "
   id="polygon25" />
<g
   id="g27"
   transform="matrix(0.95,0,0,0.95,2.5931,3.69585)">
	<path
   style="fill:#231f20"
   d="M 75.043,11.457 L 77.324,12.031 C 76.848,13.901 75.991,15.327 74.755,16.308 C 73.518,17.289 72.005,17.781 70.218,17.781 C 68.368,17.781 66.864,17.404 65.705,16.649 C 64.546,15.895 63.664,14.801 63.059,13.371 C 62.454,11.94 62.152,10.403 62.152,8.762 C 62.152,6.972 62.493,5.409 63.176,4.076 C 63.858,2.743 64.829,1.729 66.09,1.038 C 67.351,0.347 68.738,0 70.251,0 C 71.968,0 73.411,0.438 74.581,1.314 C 75.752,2.191 76.567,3.422 77.027,5.011 L 74.793,5.538 C 74.396,4.288 73.817,3.378 73.062,2.808 C 72.305,2.238 71.353,1.953 70.207,1.953 C 68.889,1.953 67.787,2.269 66.901,2.902 C 66.015,3.535 65.394,4.384 65.035,5.451 C 64.676,6.518 64.497,7.617 64.497,8.75 C 64.497,10.211 64.709,11.486 65.135,12.576 C 65.559,13.666 66.22,14.48 67.116,15.019 C 68.012,15.558 68.983,15.828 70.027,15.828 C 71.298,15.828 72.374,15.461 73.255,14.726 C 74.136,13.991 74.732,12.902 75.043,11.457 z "
   id="path29" />
	<path
   style="fill:#231f20"
   d="M 80.219,17.484 L 80.219,0.297 L 82.5,0.297 L 82.5,7.36 L 91.391,7.36 L 91.391,0.297 L 93.672,0.297 L 93.672,17.485 L 91.391,17.485 L 91.391,9.391 L 82.5,9.391 L 82.5,17.485 L 80.219,17.485 L 80.219,17.484 z "
   id="path31" />
</g>
<g
   id="g33"
   transform="matrix(0.95,0,0,0.95,2.5931,3.69585)">
	<path
   style="fill:#231f20"
   d="M 95.27,18.578 L 96.848,18.359 C 97.031,19.255 97.34,19.901 97.776,20.297 C 98.213,20.692 98.748,20.89 99.383,20.89 C 100.136,20.89 100.769,20.632 101.282,20.118 C 101.794,19.602 102.051,18.964 102.051,18.202 C 102.051,17.476 101.813,16.878 101.335,16.406 C 100.858,15.934 100.251,15.699 99.516,15.699 C 99.215,15.699 98.841,15.758 98.394,15.875 L 98.571,14.484 C 98.677,14.496 98.762,14.502 98.827,14.502 C 99.502,14.502 100.108,14.327 100.648,13.976 C 101.187,13.625 101.458,13.084 101.458,12.353 C 101.458,11.774 101.261,11.294 100.867,10.915 C 100.472,10.535 99.965,10.345 99.342,10.345 C 98.725,10.345 98.21,10.539 97.799,10.927 C 97.387,11.315 97.122,11.897 97.005,12.673 L 95.427,12.392 C 95.62,11.33 96.061,10.507 96.747,9.924 C 97.434,9.34 98.287,9.048 99.308,9.048 C 100.012,9.048 100.661,9.198 101.252,9.5 C 101.845,9.801 102.298,10.212 102.612,10.732 C 102.925,11.253 103.083,11.805 103.083,12.39 C 103.083,12.946 102.934,13.452 102.635,13.908 C 102.336,14.364 101.894,14.726 101.308,14.996 C 102.07,15.172 102.662,15.537 103.087,16.09 C 103.512,16.645 103.724,17.337 103.724,18.169 C 103.724,19.295 103.313,20.248 102.491,21.03 C 101.67,21.812 100.631,22.204 99.375,22.204 C 98.241,22.204 97.301,21.867 96.553,21.195 C 95.802,20.521 95.375,19.649 95.27,18.578 z "
   id="path35" />
</g>
<path
   style="fill:#231f20"
   d="M 59.4981,15.65065 L 60.3056,17.07565 L 45.1056,25.86315 L 44.2981,24.48565 L 59.4981,15.65065 z "
   id="polygon37" />
</svg>