<?xml version="1.0" encoding="UTF-8"?>
<svg width="181pt" xmlns:xlink="http://www.w3.org/1999/xlink" xmlns="http://www.w3.org/2000/svg" height="111pt" viewBox="0 0 181 111" >
 <g transform="translate(14.5498, 35.4004)" style="fill:#000000; fill-rule:nonzero; stroke:none; stroke-width:1.7; stroke-linecap:butt; stroke-linejoin:miter; stroke-dasharray:none;" >
  <path d="M1.7002 39.6992 C1.7002 39.6992 0 40.6992 0 40.6992 C0 40.6992 0 0 0 0 C0 0 1.7002 1 1.7002 1 C1.7002 1 1.7002 39.6992 1.7002 39.6992 Z" />
 </g>
 <g transform="translate(20.5, 39.3496)" style="fill:#000000; fill-rule:nonzero; stroke:none; stroke-width:1.7; stroke-linecap:butt; stroke-linejoin:miter; stroke-dasharray:none;" >
  <path d="M1.7002 32.8008 C1.7002 32.8008 0 32.8008 0 32.8008 C0 32.8008 0 0 0 0 C0 0 1.7002 0 1.7002 0 C1.7002 0 1.7002 32.8008 1.7002 32.8008 Z" />
 </g>
 <g transform="translate(14.5498, 75.0996)" style="fill:#000000; fill-rule:nonzero; stroke:none; stroke-width:1.7; stroke-linecap:butt; stroke-linejoin:miter; stroke-dasharray:none;" >
  <path d="M35.2002 19.3506 C35.2002 19.3506 35.2002 21.3008 35.2002 21.3008 C35.2002 21.3008 0 1 0 1 C0 1 1.7002 0 1.7002 0 C1.7002 0 35.2002 19.3506 35.2002 19.3506 Z" />
 </g>
 <g transform="translate(49.75, 75.0996)" style="fill:#000000; fill-rule:nonzero; stroke:none; stroke-width:1.7; stroke-linecap:butt; stroke-linejoin:miter; stroke-dasharray:none;" >
  <path d="M33.5 0 C33.5 0 35.2002 1 35.2002 1 C35.2002 1 0 21.3008 0 21.3008 C0 21.3008 0 19.3506 0 19.3506 C0 19.3506 33.5 0 33.5 0 Z" />
 </g>
 <g transform="translate(49.2998, 71.4004)" style="fill:#000000; fill-rule:nonzero; stroke:none; stroke-width:1.7; stroke-linecap:butt; stroke-linejoin:miter; stroke-dasharray:none;" >
  <path d="M28.4502 0 C28.4502 0 29.2998 1.5 29.2998 1.5 C29.2998 1.5 0.9004 17.8994 0.9004 17.8994 C0.9004 17.8994 0 16.3994 0 16.3994 C0 16.3994 28.4502 0 28.4502 0 Z" />
 </g>
 <g transform="translate(83.25, 35.9004)" style="fill:#000000; fill-rule:nonzero; stroke:none; stroke-width:1.7; stroke-linecap:butt; stroke-linejoin:miter; stroke-dasharray:none;" >
  <path d="M0 0.5 C0 0.5 0.8496 0 0.8496 0 C0.8496 0 1.7002 0.5 1.7002 0.5 C1.7002 0.5 1.7002 40.1992 1.7002 40.1992 C1.7002 40.1992 0 39.1992 0 39.1992 C0 39.1992 0 0.5 0 0.5 Z" />
 </g>
 <g transform="translate(49.75, 15.0996)" style="fill:#000000; fill-rule:nonzero; stroke:none; stroke-width:1.7; stroke-linecap:butt; stroke-linejoin:miter; stroke-dasharray:none;" >
  <path d="M0 1.9502 C0 1.9502 0 0 0 0 C0 0 34.3496 19.8506 34.3496 19.8506 C34.3496 19.8506 34.3496 20.8008 34.3496 20.8008 C34.3496 20.8008 33.5 21.3008 33.5 21.3008 C33.5 21.3008 0 1.9502 0 1.9502 Z" />
 </g>
 <g transform="translate(49.2998, 22.2002)" style="fill:#000000; fill-rule:nonzero; stroke:none; stroke-width:1.7; stroke-linecap:butt; stroke-linejoin:miter; stroke-dasharray:none;" >
  <path d="M0 1.5 C0 1.5 0.9004 0 0.9004 0 C0.9004 0 29.2998 16.3994 29.2998 16.3994 C29.2998 16.3994 28.4502 17.8994 28.4502 17.8994 C28.4502 17.8994 0 1.5 0 1.5 Z" />
 </g>
 <g transform="translate(14.5498, 15.0996)" style="fill:#000000; fill-rule:nonzero; stroke:none; stroke-width:1.7; stroke-linecap:butt; stroke-linejoin:miter; stroke-dasharray:none;" >
  <path d="M1.7002 21.3008 C1.7002 21.3008 0 20.3008 0 20.3008 C0 20.3008 35.2002 0 35.2002 0 C35.2002 0 35.2002 1.9502 35.2002 1.9502 C35.2002 1.9502 1.7002 21.3008 1.7002 21.3008 Z" />
 </g>
 <g transform="translate(84.0996, 15.0996)" style="fill:#000000; fill-rule:nonzero; stroke:none; stroke-width:1.7; stroke-linecap:butt; stroke-linejoin:miter; stroke-dasharray:none;" >
  <path d="M34.3504 0 C34.3504 0 34.3504 1.9502 34.3504 1.9502 C34.3504 1.9502 0.8506 21.3008 0.8506 21.3008 C0.8506 21.3008 0 20.8008 0 20.8008 C0 20.8008 0 19.8506 0 19.8506 C0 19.8506 34.3504 0 34.3504 0 Z" />
 </g>
 <g transform="translate(145.402, 26.9658)" style="fill:#000000; fill-rule:evenodd; stroke:none; stroke-width:1.7; stroke-linecap:butt; stroke-linejoin:miter; stroke-dasharray:none;" >
  <path d="M14.736 5.7119 C14.04 1.8721 11.832 0 7.992 0 C5.64 0 3.744 0.7442 2.448 2.1846 C0.864 3.9121 0 6.4082 0 9.2403 C0 12.1201 0.888 14.5918 2.544 16.2959 C3.888 17.6885 5.616 18.336 7.896 18.336 C12.168 18.336 14.568 16.0322 15.096 11.4004 C15.096 11.4004 12.792 11.4004 12.792 11.4004 C12.6 12.6006 12.36 13.416 12 14.1123 C11.28 15.5518 9.792 16.3682 7.92 16.3682 C4.44 16.3682 2.232 13.584 2.232 9.2158 C2.232 4.7285 4.344 1.9678 7.728 1.9678 C9.144 1.9678 10.464 2.4004 11.184 3.0723 C11.832 3.6719 12.192 4.416 12.456 5.7119 C12.456 5.7119 14.736 5.7119 14.736 5.7119 Z" />
 </g>
 <g transform="translate(163.132, 27.2539)" style="fill:#000000; fill-rule:evenodd; stroke:none; stroke-width:1.7; stroke-linecap:butt; stroke-linejoin:miter; stroke-dasharray:none;" >
  <path d="M2.016 0 C2.016 0 0 0 0 0 C0 0 0 17.4961 0 17.4961 C0 17.4961 2.016 17.4961 2.016 17.4961 C2.016 17.4961 2.016 0 2.016 0 Z" />
 </g>
 <g transform="translate(118.45, 15.0996)" style="fill:#000000; fill-rule:nonzero; stroke:none; stroke-width:1.7; stroke-linecap:butt; stroke-linejoin:miter; stroke-dasharray:none;" >
  <path d="M26 15 C26 15 25.15 16.5 25.15 16.5 C25.15 16.5 0 1.9502 0 1.9502 C0 1.9502 0 0 0 0 C0 0 26 15 26 15 Z" />
 </g>
</svg>
