<?xml version="1.0" encoding="UTF-8" standalone="no"?>
<!-- Created with Inkscape (http://www.inkscape.org/) -->

<svg
   xmlns:dc="http://purl.org/dc/elements/1.1/"
   xmlns:cc="http://creativecommons.org/ns#"
   xmlns:rdf="http://www.w3.org/1999/02/22-rdf-syntax-ns#"
   xmlns:svg="http://www.w3.org/2000/svg"
   xmlns="http://www.w3.org/2000/svg"
   version="1.2"
   width="138.57362"
   height="66.535141"
   id="svg2">
  <metadata
     id="metadata4277">
    <rdf:RDF>
      <cc:Work
         rdf:about="">
        <dc:format>image/svg+xml</dc:format>
        <dc:type
           rdf:resource="http://purl.org/dc/dcmitype/StillImage" />
        <dc:title></dc:title>
      </cc:Work>
    </rdf:RDF>
  </metadata>
  <defs
     id="defs4275" />
  <g
     transform="translate(0.08421574,0)"
     id="Layer_1">
    <g
       id="g4171">
      <g
         id="g4173">
        <path
           d="m 103.582,56.109 0.014,-19.842"
           id="path4175"
           style="stroke:#000000;stroke-linecap:round" />
        <path
           d="m 108.083,53.632 0.01,-14.881"
           id="path4177"
           style="stroke:#000000;stroke-linecap:round" />
      </g>
      <g
         id="g4179">
        <path
           d="M 75.363,32.727 86.414,26.345"
           id="path4181"
           style="stroke:#000000;stroke-linecap:round" />
      </g>
      <g
         id="g4183">
        <path
           d="M 34.862,36.264 52.048,26.345"
           id="path4185"
           style="stroke:#000000;stroke-linecap:round" />
      </g>
      <g
         id="g4187">
        <path
           d="M 34.862,36.264 V 56.077"
           id="path4189"
           style="stroke:#000000;stroke-linecap:round" />
      </g>
      <g
         id="g4191">
        <path
           d="M 50.548,26.345 50.55,11.514"
           id="path4193"
           style="stroke:#000000;stroke-linecap:round" />
        <path
           d="M 53.548,26.345 53.55,11.514"
           id="path4195"
           style="stroke:#000000;stroke-linecap:round" />
      </g>
      <g
         id="g4197">
        <path
           d="m 120.764,66.031 17.163,-9.899"
           id="path4199"
           style="stroke:#000000;stroke-linecap:round" />
        <path
           d="m 120.662,60.896 12.871,-7.425"
           id="path4201"
           style="stroke:#000000;stroke-linecap:round" />
      </g>
      <g
         id="g4203">
        <path
           d="M 120.764,66.031 103.581,56.109"
           id="path4205"
           style="stroke:#000000;stroke-linecap:round" />
      </g>
      <g
         id="g4207">
        <path
           d="m 103.595,36.268 17.162,-9.9"
           id="path4209"
           style="stroke:#000000;stroke-linecap:round" />
      </g>
      <g
         id="g4211">
        <path
           d="M 0.5,36.264 V 56.077"
           id="path4213"
           style="stroke:#000000;stroke-linecap:round" />
        <path
           d="M 5,38.74 V 53.6"
           id="path4215"
           style="stroke:#000000;stroke-linecap:round" />
      </g>
      <g
         id="g4217">
        <path
           d="M 137.927,56.132 137.941,36.29"
           id="path4219"
           style="stroke:#000000;stroke-linecap:round" />
      </g>
      <g
         id="g4221">
        <path
           d="M 34.862,56.077 17.681,66.004"
           id="path4223"
           style="stroke:#000000;stroke-linecap:round" />
        <path
           d="M 30.463,53.422 17.577,60.866"
           id="path4225"
           style="stroke:#000000;stroke-linecap:round" />
      </g>
      <g
         id="g4227">
        <path
           d="m 0.5,56.077 17.181,9.927"
           id="path4229"
           style="stroke:#000000;stroke-linecap:round" />
      </g>
      <g
         id="g4231">
        <path
           d="m 86.414,26.345 17.182,9.923"
           id="path4233"
           style="stroke:#000000;stroke-linecap:round" />
      </g>
      <g
         id="g4235">
        <path
           d="m 120.757,26.367 17.184,9.923"
           id="path4237"
           style="stroke:#000000;stroke-linecap:round" />
        <path
           d="m 120.656,31.505 12.887,7.441"
           id="path4239"
           style="stroke:#000000;stroke-linecap:round" />
      </g>
      <g
         id="g4241">
        <path
           d="M 84.914,26.345 V 11.514"
           id="path4243"
           style="stroke:#000000;stroke-linecap:round" />
        <path
           d="M 87.914,26.345 V 11.514"
           id="path4245"
           style="stroke:#000000;stroke-linecap:round" />
      </g>
      <g
         id="g4247">
        <path
           d="M 0.5,36.264 17.681,26.337"
           id="path4249"
           style="stroke:#000000;stroke-linecap:round" />
      </g>
      <g
         id="g4251">
        <path
           d="m 17.681,26.337 17.181,9.927"
           id="path4253"
           style="stroke:#000000;stroke-linecap:round" />
        <path
           d="m 17.578,31.475 12.886,7.444"
           id="path4255"
           style="stroke:#000000;stroke-linecap:round" />
      </g>
      <g
         id="g4257">
        <path
           d="m 52.048,26.345 11.314,6.534"
           id="path4259"
           style="stroke:#000000;stroke-linecap:round" />
      </g>
      <g
         id="g4261">
        <path
           d="m 47.666,4.562 c 0,-1.426 0.382,-2.542 1.146,-3.35 0.765,-0.807 1.752,-1.21 2.961,-1.21 0.792,0 1.506,0.189 2.142,0.568 0.636,0.379 1.12,0.908 1.454,1.586 0.333,0.678 0.5,1.446 0.5,2.306 0,0.871 -0.176,1.651 -0.526,2.339 -0.352,0.688 -0.849,1.208 -1.492,1.562 -0.643,0.354 -1.338,0.53 -2.083,0.53 -0.808,0 -1.529,-0.195 -2.165,-0.586 C 48.967,7.916 48.486,7.383 48.158,6.707 47.83,6.031 47.666,5.315 47.666,4.562 z m 1.171,0.022 c 0,1.035 0.277,1.851 0.833,2.446 0.556,0.595 1.252,0.894 2.091,0.894 0.854,0 1.557,-0.301 2.108,-0.902 C 54.42,6.42 54.696,5.567 54.696,4.461 54.696,3.762 54.578,3.151 54.342,2.63 54.106,2.109 53.761,1.704 53.307,1.417 52.853,1.13 52.343,0.986 51.778,0.986 c -0.803,0 -1.494,0.276 -2.073,0.829 -0.579,0.553 -0.868,1.476 -0.868,2.769 z"
           id="path4263" />
      </g>
      <g
         id="g4265">
        <path
           d="m 64.916,34.327 c 0,-1.426 0.382,-2.542 1.146,-3.35 0.765,-0.807 1.752,-1.21 2.961,-1.21 0.792,0 1.506,0.189 2.142,0.568 0.636,0.379 1.12,0.908 1.454,1.586 0.333,0.678 0.5,1.446 0.5,2.306 0,0.871 -0.176,1.651 -0.526,2.339 -0.352,0.688 -0.849,1.208 -1.492,1.562 -0.643,0.354 -1.338,0.53 -2.083,0.53 -0.808,0 -1.529,-0.195 -2.165,-0.586 -0.636,-0.391 -1.117,-0.924 -1.445,-1.6 -0.328,-0.675 -0.492,-1.391 -0.492,-2.145 z m 1.171,0.023 c 0,1.035 0.277,1.851 0.833,2.446 0.556,0.595 1.252,0.894 2.091,0.894 0.854,0 1.557,-0.301 2.108,-0.902 0.551,-0.601 0.827,-1.455 0.827,-2.561 0,-0.699 -0.118,-1.31 -0.354,-1.831 -0.236,-0.521 -0.581,-0.926 -1.035,-1.213 -0.454,-0.287 -0.964,-0.431 -1.529,-0.431 -0.803,0 -1.494,0.276 -2.073,0.829 -0.579,0.553 -0.868,1.476 -0.868,2.769 z"
           id="path4267" />
      </g>
      <g
         id="g4269">
        <path
           d="m 82.166,4.56 c 0,-1.426 0.382,-2.542 1.146,-3.35 C 84.077,0.403 85.064,0 86.273,0 c 0.792,0 1.506,0.189 2.142,0.568 0.636,0.379 1.12,0.908 1.454,1.586 0.333,0.678 0.5,1.446 0.5,2.306 0,0.871 -0.176,1.651 -0.526,2.339 -0.352,0.688 -0.849,1.208 -1.492,1.562 -0.643,0.354 -1.338,0.53 -2.083,0.53 -0.808,0 -1.529,-0.195 -2.165,-0.586 C 83.467,7.914 82.986,7.381 82.658,6.705 82.33,6.029 82.166,5.313 82.166,4.56 z m 1.171,0.022 c 0,1.035 0.277,1.851 0.833,2.446 0.556,0.595 1.253,0.894 2.091,0.894 0.854,0 1.557,-0.301 2.108,-0.902 0.551,-0.601 0.827,-1.455 0.827,-2.561 0,-0.699 -0.118,-1.31 -0.354,-1.831 C 88.606,2.107 88.261,1.702 87.807,1.415 87.353,1.128 86.843,0.984 86.278,0.984 c -0.803,0 -1.494,0.276 -2.073,0.829 -0.579,0.553 -0.868,1.476 -0.868,2.769 z"
           id="path4271" />
      </g>
    </g>
  </g>
</svg>
