<?xml version="1.0" encoding="UTF-8" standalone="no"?>
<!-- Generator: Adobe Illustrator 12.0.1, SVG Export Plug-In . SVG Version: 6.00 Build 51448)  -->
<svg
   xmlns:dc="http://purl.org/dc/elements/1.1/"
   xmlns:cc="http://web.resource.org/cc/"
   xmlns:rdf="http://www.w3.org/1999/02/22-rdf-syntax-ns#"
   xmlns:svg="http://www.w3.org/2000/svg"
   xmlns="http://www.w3.org/2000/svg"
   xmlns:sodipodi="http://sodipodi.sourceforge.net/DTD/sodipodi-0.dtd"
   xmlns:inkscape="http://www.inkscape.org/namespaces/inkscape"
   version="1.1"
   id="Layer_1"
   width="128.209"
   height="116.981"
   viewBox="0 0 128.209 116.981"
   style="overflow:visible;enable-background:new 0 0 128.209 116.981;"
   xml:space="preserve"
   sodipodi:version="0.32"
   inkscape:version="0.44.1"
   sodipodi:docname="Lactic-acid-skeletal.svg"
   sodipodi:docbase="E:\Eigene Dateien"><metadata
   id="metadata36"><rdf:RDF><cc:Work
       rdf:about=""><dc:format>image/svg+xml</dc:format><dc:type
         rdf:resource="http://purl.org/dc/dcmitype/StillImage" /></cc:Work></rdf:RDF></metadata><defs
   id="defs34" /><sodipodi:namedview
   inkscape:window-height="573"
   inkscape:window-width="925"
   inkscape:pageshadow="2"
   inkscape:pageopacity="0.0"
   guidetolerance="10.0"
   gridtolerance="10.0"
   objecttolerance="10.0"
   borderopacity="1.0"
   bordercolor="#666666"
   pagecolor="#ffffff"
   id="base"
   inkscape:zoom="3.2312939"
   inkscape:cx="64.1045"
   inkscape:cy="58.490501"
   inkscape:window-x="132"
   inkscape:window-y="132"
   inkscape:current-layer="Layer_1" />
<g
   id="g3"
   transform="matrix(0.95,0,0,0.95,3.205225,2.92455)">
	<polygon
   points="0,48.484 0.85,46.984 34.8,66.584 34.8,67.584 33.9,68.034 0,48.484 "
   id="polygon5" />
	<polygon
   points="35.65,68.034 34.8,67.584 34.8,66.584 69.149,46.734 69.149,48.734 35.65,68.034 "
   id="polygon7" />
	<g
   id="g9">
		<path
   d="M 95.307,68.669 C 95.307,65.817 96.073,63.584 97.604,61.97 C 99.137,60.357 101.114,59.55 103.538,59.55 C 105.124,59.55 106.555,59.929 107.829,60.687 C 109.102,61.445 110.073,62.502 110.742,63.858 C 111.411,65.214 111.745,66.752 111.745,68.47 C 111.745,70.212 111.393,71.772 110.689,73.147 C 109.985,74.523 108.989,75.564 107.7,76.271 C 106.409,76.978 105.018,77.332 103.526,77.332 C 101.907,77.332 100.462,76.941 99.188,76.16 C 97.913,75.379 96.948,74.312 96.292,72.96 C 95.635,71.607 95.307,70.177 95.307,68.669 z M 97.65,68.698 C 97.65,70.768 98.207,72.399 99.32,73.591 C 100.435,74.782 101.832,75.378 103.513,75.378 C 105.224,75.378 106.634,74.776 107.74,73.573 C 108.846,72.37 109.4,70.663 109.4,68.452 C 109.4,67.054 109.164,65.833 108.69,64.79 C 108.216,63.747 107.525,62.938 106.615,62.364 C 105.704,61.79 104.681,61.503 103.549,61.503 C 101.938,61.503 100.553,62.056 99.391,63.161 C 98.23,64.267 97.65,66.112 97.65,68.698 z "
   id="path11" />
		<path
   d="M 114.756,77.034 L 114.756,59.847 L 117.037,59.847 L 117.037,66.91 L 125.928,66.91 L 125.928,59.847 L 128.209,59.847 L 128.209,77.035 L 125.928,77.035 L 125.928,68.94 L 117.037,68.94 L 117.037,77.034 L 114.756,77.034 L 114.756,77.034 z "
   id="path13" />
	</g>
	<polygon
   points="69.149,48.734 69.149,46.734 94.899,61.635 94.05,63.084 69.149,48.734 "
   id="polygon15" />
	<g
   id="g17">
		<path
   d="M 60.906,9.119 C 60.906,6.267 61.672,4.034 63.204,2.42 C 64.736,0.807 66.714,0 69.137,0 C 70.724,0 72.155,0.379 73.428,1.137 C 74.701,1.895 75.673,2.952 76.342,4.308 C 77.01,5.664 77.344,7.202 77.344,8.92 C 77.344,10.662 76.992,12.222 76.289,13.597 C 75.585,14.973 74.588,16.014 73.299,16.721 C 72.009,17.428 70.617,17.782 69.125,17.782 C 67.507,17.782 66.061,17.391 64.787,16.61 C 63.513,15.829 62.548,14.762 61.891,13.41 C 61.234,12.058 60.906,10.627 60.906,9.119 z M 63.25,9.148 C 63.25,11.218 63.807,12.849 64.921,14.041 C 66.035,15.233 67.433,15.828 69.113,15.828 C 70.825,15.828 72.234,15.226 73.341,14.023 C 74.448,12.82 75,11.113 75,8.902 C 75,7.504 74.764,6.283 74.291,5.24 C 73.817,4.197 73.125,3.388 72.215,2.814 C 71.305,2.24 70.282,1.953 69.149,1.953 C 67.539,1.953 66.153,2.506 64.992,3.611 C 63.831,4.716 63.25,6.563 63.25,9.148 z "
   id="path19" />
	</g>
	<rect
   x="65.300003"
   y="20.084"
   width="1.7"
   height="29.35"
   id="rect21" />
	<rect
   x="71.25"
   y="20.084"
   width="1.7"
   height="29.35"
   id="rect23" />
	<g
   id="g25">
		<path
   d="M 26.556,108.319 C 26.556,105.467 27.322,103.234 28.854,101.62 C 30.386,100.007 32.364,99.2 34.787,99.2 C 36.374,99.2 37.804,99.579 39.078,100.337 C 40.352,101.095 41.323,102.152 41.992,103.508 C 42.66,104.864 42.994,106.402 42.994,108.12 C 42.994,109.862 42.642,111.422 41.939,112.797 C 41.235,114.173 40.239,115.214 38.949,115.921 C 37.659,116.628 36.268,116.982 34.775,116.982 C 33.157,116.982 31.711,116.591 30.437,115.81 C 29.163,115.029 28.198,113.962 27.541,112.61 C 26.884,111.258 26.556,109.827 26.556,108.319 z M 28.9,108.349 C 28.9,110.419 29.457,112.05 30.571,113.242 C 31.685,114.434 33.083,115.029 34.763,115.029 C 36.475,115.029 37.884,114.427 38.991,113.224 C 40.097,112.021 40.65,110.314 40.65,108.103 C 40.65,106.705 40.414,105.484 39.941,104.441 C 39.468,103.398 38.776,102.589 37.865,102.015 C 36.954,101.441 35.932,101.154 34.799,101.154 C 33.189,101.154 31.803,101.707 30.642,102.812 C 29.481,103.917 28.9,105.763 28.9,108.349 z "
   id="path27" />
		<path
   d="M 46.005,116.685 L 46.005,99.497 L 48.286,99.497 L 48.286,106.56 L 57.177,106.56 L 57.177,99.497 L 59.458,99.497 L 59.458,116.685 L 57.177,116.685 L 57.177,108.591 L 48.286,108.591 L 48.286,116.685 L 46.005,116.685 z "
   id="path29" />
	</g>
	<polygon
   points="38.6,97.034 30.95,97.034 33.9,68.034 34.8,67.584 35.65,68.034 38.6,97.034 "
   id="polygon31" />
</g>
</svg>