<?xml version="1.0" encoding="UTF-8"?>
<!-- Converted by misc2svg (http://www.network-science.de/tools/misc2svg/) -->
<svg xmlns="http://www.w3.org/2000/svg" xmlns:xlink="http://www.w3.org/1999/xlink" width="231pt" height="113pt" viewBox="0 0 231 113" version="1.1">
<defs>
<clipPath id="clip1">
  <path d="M 0 112.5 L 231.25 112.5 L 231.25 0 L 0 0 L 0 112.5 Z M 0 112.5 "/>
</clipPath>
</defs>
<g id="misc2svg">
<g clip-path="url(#clip1)" clip-rule="nonzero">
<path style=" stroke:none;fill-rule:nonzero;fill:rgb(0%,0%,0%);fill-opacity:1;" d="M 4.949219 103.0625 L 4.949219 81.578125 L 7.800781 81.578125 L 7.800781 90.40625 L 18.953125 90.40625 L 18.953125 81.578125 L 21.804688 81.578125 L 21.804688 103.0625 L 18.953125 103.0625 L 18.953125 92.945312 L 7.800781 92.945312 L 7.800781 103.0625 L 4.949219 103.0625 Z M 4.949219 103.0625 "/>
<path style=" stroke:none;fill-rule:nonzero;fill:rgb(0%,0%,0%);fill-opacity:1;" d="M 25.210938 105.164062 L 27.203125 104.910156 C 27.421875 106.03125 27.808594 106.835938 28.355469 107.332031 C 28.902344 107.828125 29.566406 108.074219 30.347656 108.074219 C 31.285156 108.074219 32.070312 107.753906 32.710938 107.117188 C 33.347656 106.464844 33.667969 105.664062 33.667969 104.714844 C 33.667969 103.804688 33.367188 103.054688 32.769531 102.46875 C 32.183594 101.871094 31.433594 101.570312 30.523438 101.570312 C 30.144531 101.570312 29.675781 101.648438 29.117188 101.804688 L 29.332031 100.066406 C 29.460938 100.078125 29.570312 100.085938 29.664062 100.085938 C 30.496094 100.085938 31.25 99.863281 31.929688 99.421875 C 32.605469 98.980469 32.945312 98.300781 32.945312 97.390625 C 32.945312 96.660156 32.695312 96.0625 32.203125 95.59375 C 31.707031 95.113281 31.074219 94.871094 30.308594 94.871094 C 29.539062 94.871094 28.894531 95.113281 28.375 95.59375 C 27.867188 96.074219 27.539062 96.804688 27.398438 97.78125 L 25.425781 97.429688 C 25.660156 96.101562 26.207031 95.074219 27.066406 94.34375 C 27.925781 93.613281 28.992188 93.25 30.269531 93.25 C 31.140625 93.25 31.949219 93.4375 32.691406 93.816406 C 33.433594 94.195312 34 94.707031 34.390625 95.359375 C 34.78125 96.011719 34.976562 96.699219 34.976562 97.429688 C 34.976562 98.132812 34.785156 98.769531 34.410156 99.34375 C 34.042969 99.902344 33.492188 100.351562 32.75 100.691406 C 33.699219 100.914062 34.433594 101.375 34.957031 102.078125 C 35.488281 102.769531 35.757812 103.628906 35.757812 104.65625 C 35.757812 106.0625 35.242188 107.261719 34.214844 108.25 C 33.199219 109.226562 31.910156 109.714844 30.347656 109.714844 C 28.925781 109.714844 27.75 109.292969 26.8125 108.445312 C 25.886719 107.597656 25.351562 106.503906 25.210938 105.164062 Z M 25.210938 105.164062 "/>
<path style=" stroke:none;fill-rule:nonzero;fill:rgb(0%,0%,0%);fill-opacity:1;" d="M 54.488281 95.523438 L 57.339844 96.246094 C 56.738281 98.578125 55.664062 100.363281 54.117188 101.597656 C 52.5625 102.824219 50.667969 103.433594 48.433594 103.433594 C 46.128906 103.433594 44.242188 102.964844 42.789062 102.027344 C 41.34375 101.078125 40.238281 99.710938 39.488281 97.925781 C 38.730469 96.128906 38.355469 94.210938 38.355469 92.164062 C 38.355469 89.929688 38.773438 87.976562 39.625 86.304688 C 40.484375 84.640625 41.699219 83.375 43.277344 82.515625 C 44.847656 81.65625 46.585938 81.226562 48.492188 81.226562 C 50.640625 81.226562 52.441406 81.773438 53.902344 82.867188 C 55.371094 83.960938 56.390625 85.5 56.96875 87.476562 L 54.175781 88.140625 C 53.667969 86.578125 52.933594 85.441406 51.988281 84.722656 C 51.050781 84.007812 49.863281 83.648438 48.433594 83.648438 C 46.777344 83.648438 45.394531 84.046875 44.292969 84.839844 C 43.183594 85.636719 42.402344 86.695312 41.949219 88.023438 C 41.503906 89.351562 41.285156 90.726562 41.285156 92.144531 C 41.285156 93.96875 41.542969 95.5625 42.066406 96.929688 C 42.597656 98.296875 43.421875 99.320312 44.546875 99.996094 C 45.679688 100.660156 46.894531 100.992188 48.199219 100.992188 C 49.800781 100.992188 51.148438 100.539062 52.242188 99.625 C 53.34375 98.703125 54.097656 97.335938 54.488281 95.523438 Z M 54.488281 95.523438 "/>
<path style=" stroke:none;fill-rule:nonzero;fill:rgb(0%,0%,0%);fill-opacity:1;" d="M 90.75 66.0625 L 90.75 68.5 L 59.875 86.375 L 58.8125 84.5 L 90.75 66.0625 Z M 90.75 66.0625 "/>
<path style=" stroke:none;fill-rule:nonzero;fill:rgb(0%,0%,0%);fill-opacity:1;" d="M 123.507812 92.59375 C 123.507812 89.039062 124.464844 86.257812 126.378906 84.234375 C 128.292969 82.21875 130.765625 81.207031 133.800781 81.207031 C 135.777344 81.207031 137.5625 81.6875 139.152344 82.632812 C 140.753906 83.570312 141.96875 84.894531 142.804688 86.597656 C 143.632812 88.292969 144.054688 90.210938 144.054688 92.359375 C 144.054688 94.539062 143.609375 96.480469 142.726562 98.199219 C 141.851562 99.917969 140.609375 101.222656 138.996094 102.105469 C 137.378906 102.992188 135.640625 103.433594 133.78125 103.433594 C 131.757812 103.433594 129.953125 102.945312 128.351562 101.96875 C 126.757812 100.992188 125.558594 99.660156 124.738281 97.964844 C 123.917969 96.273438 123.507812 94.484375 123.507812 92.59375 Z M 126.4375 92.652344 C 126.4375 95.230469 127.132812 97.273438 128.527344 98.765625 C 129.917969 100.25 131.664062 100.992188 133.761719 100.992188 C 135.910156 100.992188 137.671875 100.246094 139.054688 98.746094 C 140.429688 97.238281 141.125 95.101562 141.125 92.339844 C 141.125 90.597656 140.820312 89.074219 140.226562 87.769531 C 139.640625 86.457031 138.773438 85.441406 137.628906 84.722656 C 136.496094 84.007812 135.226562 83.648438 133.820312 83.648438 C 131.796875 83.648438 130.0625 84.34375 128.605469 85.71875 C 127.160156 87.101562 126.4375 89.410156 126.4375 92.652344 Z M 126.4375 92.652344 "/>
<path style=" stroke:none;fill-rule:nonzero;fill:rgb(0%,0%,0%);fill-opacity:1;" d="M 122.625 84.4375 L 121.5625 86.3125 L 90.75 68.5 L 90.75 66.0625 L 122.625 84.4375 Z M 122.625 84.4375 "/>
<path style=" stroke:none;fill-rule:nonzero;fill:rgb(0%,0%,0%);fill-opacity:1;" d="M 80.570312 18.15625 C 80.570312 14.601562 81.527344 11.820312 83.441406 9.796875 C 85.355469 7.78125 87.828125 6.769531 90.863281 6.769531 C 92.839844 6.769531 94.625 7.25 96.214844 8.195312 C 97.816406 9.132812 99.03125 10.457031 99.867188 12.160156 C 100.695312 13.855469 101.117188 15.773438 101.117188 17.921875 C 101.117188 20.101562 100.671875 22.042969 99.789062 23.761719 C 98.914062 25.480469 97.671875 26.785156 96.058594 27.667969 C 94.441406 28.554688 92.703125 28.996094 90.84375 28.996094 C 88.820312 28.996094 87.015625 28.507812 85.414062 27.53125 C 83.820312 26.554688 82.621094 25.222656 81.800781 23.527344 C 80.980469 21.835938 80.570312 20.046875 80.570312 18.15625 Z M 83.5 18.214844 C 83.5 20.792969 84.195312 22.835938 85.589844 24.328125 C 86.980469 25.8125 88.726562 26.554688 90.824219 26.554688 C 92.972656 26.554688 94.734375 25.808594 96.117188 24.308594 C 97.492188 22.800781 98.1875 20.664062 98.1875 17.902344 C 98.1875 16.160156 97.882812 14.636719 97.289062 13.332031 C 96.703125 12.019531 95.835938 11.003906 94.691406 10.285156 C 93.558594 9.570312 92.289062 9.210938 90.882812 9.210938 C 88.859375 9.210938 87.125 9.90625 85.667969 11.28125 C 84.222656 12.664062 83.5 14.972656 83.5 18.214844 Z M 83.5 18.214844 "/>
<path style=" stroke:none;fill-rule:nonzero;fill:rgb(0%,0%,0%);fill-opacity:1;" d="M 86 69.4375 L 88.125 69.4375 L 88.125 31.8125 L 86 31.8125 L 86 69.4375 Z M 86 69.4375 "/>
<path style=" stroke:none;fill-rule:nonzero;fill:rgb(0%,0%,0%);fill-opacity:1;" d="M 93.4375 69.4375 L 95.5625 69.4375 L 95.5625 31.8125 L 93.4375 31.8125 L 93.4375 69.4375 Z M 93.4375 69.4375 "/>
<path style="fill:none;stroke-width:27;stroke-linecap:butt;stroke-linejoin:miter;stroke:rgb(0%,0%,0%);stroke-opacity:1;stroke-miterlimit:10;" d="M 10703.3125 3164.625 C 10703.3125 3071.875 10628.125 2996.75 10535.375 2996.75 C 10442.625 2996.75 10367.5 3071.875 10367.5 3164.625 C 10367.5 3257.375 10442.625 3332.5 10535.375 3332.5 C 10628.125 3332.5 10703.3125 3257.375 10703.3125 3164.625 Z M 10703.3125 3164.625 " transform="matrix(0.0625,0,0,0.0625,-442.5,-121.25)"/>
<path style="fill:none;stroke-width:27;stroke-linecap:butt;stroke-linejoin:miter;stroke:rgb(0%,0%,0%);stroke-opacity:1;stroke-miterlimit:10;" d="M 10451.375 3164.625 L 10619.375 3164.625 " transform="matrix(0.0625,0,0,0.0625,-442.5,-121.25)"/>
<path style="fill:none;stroke-width:27;stroke-linecap:butt;stroke-linejoin:miter;stroke:rgb(0%,0%,0%);stroke-opacity:1;stroke-miterlimit:10;" d="M 10535.375 3080.625 L 10535.375 3248.625 " transform="matrix(0.0625,0,0,0.0625,-442.5,-121.25)"/>
<path style="fill:none;stroke-width:27;stroke-linecap:butt;stroke-linejoin:miter;stroke:rgb(0%,0%,0%);stroke-opacity:1;stroke-miterlimit:10;" d="M 9652.5 3129.625 C 9652.5 3036.875 9577.375 2961.75 9484.625 2961.75 C 9391.875 2961.75 9316.75 3036.875 9316.75 3129.625 C 9316.75 3222.375 9391.875 3297.5 9484.625 3297.5 C 9577.375 3297.5 9652.5 3222.375 9652.5 3129.625 Z M 9652.5 3129.625 " transform="matrix(0.0625,0,0,0.0625,-442.5,-121.25)"/>
<path style="fill:none;stroke-width:27;stroke-linecap:butt;stroke-linejoin:miter;stroke:rgb(0%,0%,0%);stroke-opacity:1;stroke-miterlimit:10;" d="M 9400.625 3129.625 L 9568.625 3129.625 " transform="matrix(0.0625,0,0,0.0625,-442.5,-121.25)"/>
<path style=" stroke:none;fill-rule:nonzero;fill:rgb(0%,0%,0%);fill-opacity:1;" d="M 174.785156 101.875 L 174.785156 80.390625 L 177.695312 80.390625 L 188.984375 97.265625 L 188.984375 80.390625 L 191.699219 80.390625 L 191.699219 101.875 L 188.789062 101.875 L 177.519531 85 L 177.519531 101.875 L 174.785156 101.875 Z M 174.785156 101.875 "/>
<path style=" stroke:none;fill-rule:nonzero;fill:rgb(0%,0%,0%);fill-opacity:1;" d="M 206.292969 99.960938 C 205.316406 100.78125 204.371094 101.367188 203.460938 101.71875 C 202.5625 102.054688 201.597656 102.226562 200.570312 102.226562 C 198.863281 102.226562 197.550781 101.8125 196.625 100.976562 C 195.714844 100.148438 195.257812 99.078125 195.257812 97.773438 C 195.257812 97.007812 195.425781 96.308594 195.765625 95.683594 C 196.117188 95.058594 196.574219 94.5625 197.132812 94.179688 C 197.691406 93.789062 198.324219 93.496094 199.027344 93.300781 C 199.546875 93.171875 200.328125 93.042969 201.371094 92.910156 C 203.507812 92.652344 205.074219 92.34375 206.078125 91.992188 C 206.089844 91.640625 206.097656 91.414062 206.097656 91.308594 C 206.097656 90.242188 205.84375 89.488281 205.335938 89.042969 C 204.671875 88.445312 203.675781 88.144531 202.347656 88.144531 C 201.097656 88.144531 200.179688 88.367188 199.59375 88.808594 C 199.007812 89.238281 198.570312 90.007812 198.285156 91.113281 L 195.707031 90.761719 C 195.941406 89.65625 196.324219 88.765625 196.859375 88.085938 C 197.394531 87.414062 198.167969 86.890625 199.183594 86.523438 C 200.199219 86.148438 201.378906 85.957031 202.71875 85.957031 C 204.046875 85.957031 205.128906 86.113281 205.960938 86.425781 C 206.792969 86.738281 207.40625 87.140625 207.796875 87.617188 C 208.1875 88.085938 208.460938 88.6875 208.617188 89.414062 C 208.695312 89.859375 208.734375 90.664062 208.734375 91.835938 L 208.734375 95.351562 C 208.734375 97.804688 208.792969 99.351562 208.910156 100 C 209.027344 100.65625 209.25 101.28125 209.574219 101.875 L 206.820312 101.875 C 206.546875 101.328125 206.371094 100.695312 206.292969 99.960938 Z M 206.078125 94.0625 C 205.113281 94.453125 203.675781 94.785156 201.761719 95.058594 C 200.679688 95.214844 199.914062 95.390625 199.457031 95.585938 C 199.015625 95.78125 198.667969 96.070312 198.421875 96.445312 C 198.1875 96.828125 198.070312 97.242188 198.070312 97.695312 C 198.070312 98.398438 198.332031 98.984375 198.851562 99.453125 C 199.386719 99.921875 200.167969 100.15625 201.195312 100.15625 C 202.210938 100.15625 203.117188 99.9375 203.910156 99.492188 C 204.703125 99.054688 205.285156 98.445312 205.648438 97.675781 C 205.933594 97.078125 206.078125 96.203125 206.078125 95.039062 L 206.078125 94.0625 Z M 206.078125 94.0625 "/>
</g>
</g>
</svg>
