<?xml version="1.0" encoding="UTF-8"?>
<svg width="201pt" version="1.1" xmlns="http://www.w3.org/2000/svg" height="152pt" viewBox="0 0 201 152" xmlns:xlink="http://www.w3.org/1999/xlink">
 <defs>
  <clipPath id="Clip0">
   <path d="M0 0 L201 0 L201 152 L0 152 L0 0 Z" transform="translate(0, 0)"/>
  </clipPath>
 </defs>
 <g id="Background">
  <g id="Group1" clip-path="url(#Clip0)">
   <path style="fill:#000000; fill-rule:evenodd;stroke:none;" d="M8.422 0 C3.41 0 0 3.6953 0 9.1679 C0 14.6601 3.383 18.332 8.449 18.332 C10.582 18.332 12.453 17.6835 13.871 16.4843 C15.766 14.8789 16.894 12.1679 16.894 9.3125 C16.894 3.6718 13.559 0 8.422 0 Z M8.422 1.9687 C12.215 1.9687 14.66 4.8242 14.66 9.2617 C14.66 13.4882 12.141 16.3671 8.449 16.3671 C4.703 16.3671 2.234 13.4882 2.234 9.1679 C2.234 4.8476 4.703 1.9687 8.422 1.9687 Z" transform="translate(112.21, 38.5186)"/>
   <path style="fill:#000000; fill-rule:nonzero;stroke:none;" d="M23.2002 32.0498 L20.2998 34.5998 L19.4502 41.7998 L0 0.2002 L0.8496 0 L2.1494 0.3994 L23.2002 32.0498 Z" transform="translate(68.9502, 68.9502)"/>
   <path style="fill:#000000; fill-rule:nonzero;stroke:none;" d="M60 0 L62.9 2.55 L62.05 5.1 L0.8496 5.1 L0 2.55 L2.9004 0 L60 0 Z" transform="translate(89.25, 101)"/>
   <path style="fill:#000000; fill-rule:nonzero;stroke:none;" d="M21.05 0.3994 L22.3 0 L23.15 0.2002 L3.75 41.7998 L2.9 34.5998 L0 32.0498 L21.05 0.3994 Z" transform="translate(149.25, 68.9502)"/>
   <path style="fill:#000000; fill-rule:nonzero;stroke:none;" d="M0 1.5498 L0.7 0 L40.45 16.7002 L41.3 18 L40.05 18.3994 L0 1.5498 Z" transform="translate(130.25, 50.9502)"/>
   <path style="fill:#000000; fill-rule:nonzero;stroke:none;" d="M1.2998 18.3994 L0 18 L0.8506 16.7002 L40.6002 0 L41.2502 1.5996 L1.2998 18.3994 Z" transform="translate(69.7998, 50.9502)"/>
   <path style="fill:#000000; fill-rule:evenodd;stroke:none;" d="M8.4219 0 C3.4102 0 0 3.695 0 9.168 C0 14.66 3.3829 18.332 8.4493 18.332 C10.5821 18.332 12.4532 17.683 13.8711 16.484 C15.7657 14.878 16.8946 12.168 16.8946 9.312 C16.8946 3.671 13.5586 0 8.4219 0 Z M8.4219 1.968 C12.2149 1.968 14.6602 4.824 14.6602 9.261 C14.6602 13.488 12.1407 16.367 8.4493 16.367 C4.7032 16.367 2.2344 13.488 2.2344 9.168 C2.2344 4.847 4.7032 1.968 8.4219 1.968 Z" transform="translate(80.8105, 131.519)"/>
   <path style="fill:#000000; fill-rule:evenodd;stroke:none;" d="M11.227 9.527 L11.227 17.492 L13.461 17.492 L13.461 0 L11.227 0 L11.227 7.558 L2.231 7.558 L2.231 0 L0 0 L0 17.492 L2.254 17.492 L2.254 9.527 L11.227 9.527 Z" transform="translate(100.564, 131.808)"/>
   <path style="fill:#000000; fill-rule:nonzero;stroke:none;" d="M1.6992 26 L0 26 L0 7.2 L0.8496 0 L1.6992 2.55 L1.6992 26 Z" transform="translate(88.4004, 103.55)"/>
   <path style="fill:#000000; fill-rule:evenodd;stroke:none;" d="M8.422 0 C3.41 0 0 3.695 0 9.168 C0 14.66 3.383 18.332 8.449 18.332 C10.582 18.332 12.453 17.683 13.871 16.484 C15.766 14.878 16.895 12.168 16.895 9.312 C16.895 3.671 13.559 0 8.422 0 Z M8.422 1.968 C12.215 1.968 14.66 4.824 14.66 9.261 C14.66 13.488 12.141 16.367 8.449 16.367 C4.703 16.367 2.235 13.488 2.235 9.168 C2.235 4.847 4.703 1.968 8.422 1.968 Z" transform="translate(143.66, 131.519)"/>
   <path style="fill:#000000; fill-rule:evenodd;stroke:none;" d="M11.227 9.527 L11.227 17.492 L13.461 17.492 L13.461 0 L11.227 0 L11.227 7.558 L2.231 7.558 L2.231 0 L0 0 L0 17.492 L2.254 17.492 L2.254 9.527 L11.227 9.527 Z" transform="translate(163.414, 131.808)"/>
   <path style="fill:#000000; fill-rule:nonzero;stroke:none;" d="M1.7 26 L0 26 L0 2.55 L0.85 0 L1.7 7.2 L1.7 26 Z" transform="translate(151.3, 103.55)"/>
   <path style="fill:#000000; fill-rule:evenodd;stroke:none;" d="M8.422 0 C3.411 0 0 3.6953 0 9.1679 C0 14.6601 3.383 18.332 8.45 18.332 C10.582 18.332 12.453 17.6835 13.871 16.4843 C15.766 14.8789 16.895 12.1679 16.895 9.3125 C16.895 3.6718 13.559 0 8.422 0 Z M8.422 1.9687 C12.215 1.9687 14.661 4.8242 14.661 9.2617 C14.661 13.4882 12.141 16.3671 8.45 16.3671 C4.703 16.3671 2.235 13.4882 2.235 9.1679 C2.235 4.8476 4.703 1.9687 8.422 1.9687 Z" transform="translate(163.11, 20.2188)"/>
   <path style="fill:#000000; fill-rule:evenodd;stroke:none;" d="M11.227 9.5274 L11.227 17.4922 L13.461 17.4922 L13.461 0 L11.227 0 L11.227 7.5586 L2.231 7.5586 L2.231 0 L0 0 L0 17.4922 L2.254 17.4922 L2.254 9.5274 L11.227 9.5274 Z" transform="translate(182.864, 20.5078)"/>
   <path style="fill:#000000; fill-rule:nonzero;stroke:none;" d="M0 0 L1.7 0 L1.7 28.6006 L0.85 28.4004 L0 27.1006 L0 0 Z" transform="translate(170.7, 40.5498)"/>
   <path style="fill:#000000; fill-rule:nonzero;stroke:none;" d="M0 1 L1.7002 0 L1.7002 33.8506 L0.8496 35.1504 L0 35.3506 L0 1 Z" transform="translate(68.9502, 33.7998)"/>
   <path style="fill:#000000; fill-rule:evenodd;stroke:none;" d="M11.2266 9.52738 L11.2266 17.4922 L13.4609 17.4922 L13.4609 0 L11.2266 0 L11.2266 7.55859 L2.23047 7.55859 L2.23047 0 L0 0 L0 17.4922 L2.25391 17.4922 L2.25391 9.52738 L11.2266 9.52738 Z" transform="translate(4.54199, 2.05762)"/>
   <path style="fill:#000000; fill-rule:evenodd;stroke:none;" d="M8.4219 0 C3.4102 0 0 3.69532 0 9.16795 C0 14.6601 3.3828 18.332 8.4492 18.332 C10.582 18.332 12.4531 17.6836 13.8711 16.4843 C15.7656 14.8789 16.8945 12.168 16.8945 9.31255 C16.8945 3.67188 13.5586 0 8.4219 0 Z M8.4219 1.96875 C12.2149 1.96875 14.6602 4.82422 14.6602 9.26175 C14.6602 13.4882 12.1406 16.3671 8.4492 16.3671 C4.7031 16.3671 2.2344 13.4882 2.2344 9.16795 C2.2344 4.84766 4.7031 1.96875 8.4219 1.96875 Z" transform="translate(20.7871, 1.76855)"/>
   <path style="fill:#000000; fill-rule:nonzero;stroke:none;" d="M0 1.4502 L0.8496 0 L32.4502 18.25 L30.75 19.25 L0 1.4502 Z" transform="translate(38.2002, 15.5498)"/>
  </g>
 </g>
</svg>
